<svg width="91" height="14" viewBox="0 0 91 14" fill="none" xmlns="http://www.w3.org/2000/svg">
<path d="M56.6297 7.41251C56.9712 7.41044 57.3057 7.50996 57.5905 7.69843C57.8754 7.88689 58.0977 8.15578 58.2294 8.47093C58.361 8.78607 58.396 9.13325 58.3299 9.46832C58.2638 9.8034 58.0995 10.1113 57.858 10.3528C57.6165 10.5943 57.3087 10.7585 56.9736 10.8247C56.6385 10.8908 56.2913 10.8558 55.9762 10.7241C55.661 10.5925 55.3921 10.3701 55.2037 10.0853C55.0152 9.80042 54.9157 9.46599 54.9178 9.12445C54.9258 8.67293 55.1087 8.24214 55.4281 7.92282C55.7474 7.60349 56.1782 7.42055 56.6297 7.41251Z" fill="black" fill-opacity="0.8"/>
<path d="M0 10.1655H5.55338V9.40556H0.833007V0.417847H0V10.1655Z" fill="black" fill-opacity="0.8"/>
<path d="M6.54041 6.62887C6.54041 8.80638 8.01644 10.3409 10.077 10.3409C11.2462 10.3409 12.1376 9.93167 12.8391 9.20096L12.4445 8.70408C11.8454 9.3471 11.027 9.68323 10.1355 9.68323C8.46948 9.68323 7.44649 8.41179 7.37342 6.87731H13.2775V6.67271C13.2775 4.64134 12.0938 2.93148 9.94551 2.93148C7.98721 2.93148 6.54041 4.58288 6.54041 6.62887ZM9.93089 3.58912C11.6992 3.58912 12.4884 5.07977 12.503 6.27813H7.37342C7.43187 5.05054 8.26488 3.58912 9.93089 3.58912Z" fill="black" fill-opacity="0.8"/>
<path d="M19.728 10.1655H20.4879V5.19668C20.4879 3.61835 19.348 2.93148 17.9158 2.93148C16.7467 2.93148 15.9283 3.32607 15.1976 4.11523L15.6214 4.64134C16.2644 3.91063 16.9513 3.60373 17.8281 3.60373C18.8804 3.60373 19.728 4.17369 19.728 5.22591V6.6581C19.1142 5.97123 18.3104 5.64972 17.3313 5.64972C16.1037 5.64972 14.8615 6.4535 14.8615 7.98798C14.8615 9.50786 16.1183 10.3409 17.3313 10.3409C18.3104 10.3409 19.0996 10.0194 19.728 9.33249V10.1655ZM19.728 8.77715C19.2311 9.42017 18.4419 9.74168 17.5943 9.74168C16.4252 9.74168 15.6652 8.99636 15.6652 8.0026C15.6652 6.99422 16.4252 6.2489 17.5943 6.2489C18.4419 6.2489 19.2311 6.58502 19.728 7.22805V8.77715Z" fill="black" fill-opacity="0.8"/>
<path d="M22.8625 10.1655H23.6224V5.02131C23.9439 4.40751 24.9085 3.76449 25.6246 3.76449C25.7707 3.76449 25.873 3.76449 26.0045 3.79372V2.96071C25.0254 2.96071 24.2216 3.53066 23.6224 4.31983V3.10685H22.8625V10.1655Z" fill="black" fill-opacity="0.8"/>
<path d="M32.265 10.1655H33.0249V5.22591C33.0249 3.63296 32.2358 2.93148 30.8036 2.93148C29.7806 2.93148 28.7722 3.55989 28.2607 4.17369V3.10685H27.5008V10.1655H28.2607V4.83132C28.7137 4.1883 29.6491 3.61835 30.5551 3.61835C31.5781 3.61835 32.265 4.02755 32.265 5.38666V10.1655Z" fill="black" fill-opacity="0.8"/>
<path d="M35.773 1.99618C36.0945 1.99618 36.3575 1.73312 36.3575 1.41161C36.3575 1.0901 36.0945 0.841658 35.773 0.841658C35.4661 0.841658 35.1884 1.0901 35.1884 1.41161C35.1884 1.73312 35.4661 1.99618 35.773 1.99618ZM35.393 10.1655H36.1529V3.10685H35.393V10.1655Z" fill="black" fill-opacity="0.8"/>
<path d="M43.2827 10.1655H44.0426V5.22591C44.0426 3.63296 43.2535 2.93148 41.8213 2.93148C40.7983 2.93148 39.7899 3.55989 39.2784 4.17369V3.10685H38.5185V10.1655H39.2784V4.83132C39.7315 4.1883 40.6668 3.61835 41.5728 3.61835C42.5958 3.61835 43.2827 4.02755 43.2827 5.38666V10.1655Z" fill="black" fill-opacity="0.8"/>
<path d="M46.4253 11.963C47.2583 12.8107 48.0183 13.0299 49.202 13.0299C50.9265 13.0299 52.3879 12.2553 52.3879 10.0924V3.10685H51.6133V4.24676C51.0434 3.44298 50.1665 2.93148 49.1582 2.93148C47.2875 2.93148 46.0015 4.3929 46.0015 6.62887C46.0015 8.89406 47.2875 10.3116 49.1582 10.3116C50.2104 10.3116 51.1165 9.71245 51.6133 8.99636V10.107C51.6133 11.7292 50.488 12.3722 49.202 12.3722C48.1498 12.3722 47.4775 12.1092 46.8637 11.3785L46.4253 11.963ZM51.6133 8.33872C51.2041 9.02559 50.2688 9.62477 49.2897 9.62477C47.726 9.62477 46.8199 8.33872 46.8199 6.62887C46.8199 4.91901 47.726 3.61835 49.2897 3.61835C50.2688 3.61835 51.2041 4.21753 51.6133 4.9044V8.33872Z" fill="black" fill-opacity="0.8"/>
<path d="M67.802 10.1654H69.5851V0H67.802V4.16065H62.5135V0H60.7304V10.1654H62.5135V5.73042H67.802V10.1654Z" fill="black" fill-opacity="0.8"/>
<path d="M71.744 6.15716C71.744 8.6566 73.1919 10.3483 76.1485 10.3483C79.09 10.3483 80.5378 8.67184 80.5378 6.14192V0H78.7394V6.0962C78.7394 7.71169 77.8402 8.76328 76.1485 8.76328C74.4416 8.76328 73.5424 7.71169 73.5424 6.0962V0H71.744V6.15716Z" fill="black" fill-opacity="0.8"/>
<path d="M82.6981 10.1654H87.8342C89.7392 10.1654 90.7908 8.99189 90.7908 7.42212C90.7908 6.1724 89.9069 5.09032 88.8248 4.92268C89.7697 4.72455 90.5927 3.87108 90.5927 2.59088C90.5927 1.15828 89.5564 0 87.697 0H82.6981V10.1654ZM84.4813 4.20638V1.56977H87.3312C88.2457 1.56977 88.7639 2.13367 88.7639 2.89569C88.7639 3.65772 88.2457 4.20638 87.3312 4.20638H84.4813ZM84.4813 8.59563V5.77615H87.4074C88.4286 5.77615 88.962 6.41625 88.962 7.17827C88.962 8.06222 88.3828 8.59563 87.4074 8.59563H84.4813Z" fill="black" fill-opacity="0.8"/>
</svg>